<svg width="103" height="50" viewBox="0 0 103 50" fill="none" xmlns="http://www.w3.org/2000/svg">
<path d="M27.6563 35.5834C28.2188 33.9167 29.3438 32.4167 30.8438 31.25C33.6563 29.1666 35.4376 26 35.4376 22.5C35.4376 16 29.3439 10.6666 21.8438 11C15.1875 11.25 9.74998 16.25 9.5625 22.1666C9.46873 25.8334 11.25 29.0834 14.1563 31.25C15.75 32.4166 16.875 33.9166 17.4375 35.5834H27.6563Z" fill="#FFD15C"/>
<path d="M21.2812 35.75H22.125L18.3749 23.3334C18.4687 23.3334 18.5624 23.3334 18.6562 23.3334C19.1249 23.3334 19.5937 23.1667 19.9687 22.8334C20.1561 22.6667 20.3437 22.5834 20.6249 22.5834C20.9062 22.5834 21.0937 22.6667 21.2812 22.8334C21.9375 23.5 23.0625 23.5 23.7187 22.8334C23.9062 22.6667 24.0937 22.5834 24.375 22.5834C24.5624 22.5834 24.8437 22.6667 25.0312 22.8334C25.4063 23.1667 25.7812 23.3334 26.3437 23.3334C26.4375 23.3334 26.5312 23.3334 26.625 23.3334L22.9687 35.75H23.8125L27.6562 22.75C27.6562 22.5834 27.6562 22.4166 27.4687 22.3334C27.2812 22.25 27.0937 22.3334 27 22.4167C26.8125 22.5834 26.625 22.6667 26.4375 22.6667C26.1562 22.6667 25.9688 22.5834 25.6875 22.4167C25.3125 22.0834 24.9375 21.9167 24.4687 21.9167C23.9999 21.9167 23.625 22.0834 23.25 22.4167C22.8749 22.7501 22.3124 22.7501 21.9375 22.4167C21.6562 22.0834 21.1875 21.9167 20.7187 21.9167C20.25 21.9167 19.7812 22.0834 19.4999 22.4167C19.3125 22.5834 19.0312 22.6667 18.75 22.6667C18.5625 22.6667 18.2812 22.5834 18.1875 22.4167C18.0937 22.3334 17.9062 22.2501 17.7187 22.3334C17.5313 22.4167 17.4375 22.5834 17.5313 22.75L21.2812 35.75Z" fill="#55499F"/>
<path d="M19.5938 43.25C20.0626 44.25 21.1876 45 22.5 45C23.8125 45 24.9375 44.25 25.4063 43.25H19.5938Z" fill="#344A5E"/>
<path d="M25.9688 43.3334H19.125C18.1875 43.3334 17.4375 42.6667 17.4375 41.8334V35.5H27.6563V41.8334C27.6563 42.6666 26.9062 43.3334 25.9688 43.3334Z" fill="#344A5E"/>
<path d="M27.5625 38.6666H17.4375C16.875 38.6666 16.4063 38.25 16.4063 37.75C16.4063 37.25 16.875 36.8334 17.4375 36.8334H27.5625C28.125 36.8334 28.5937 37.25 28.5937 37.75C28.5937 38.25 28.125 38.6666 27.5625 38.6666Z" fill="#415A6B"/>
<path d="M27.5625 41.5834H17.4375C16.875 41.5834 16.4063 41.1667 16.4063 40.6667C16.4063 40.1667 16.875 39.7501 17.4375 39.7501H27.5625C28.125 39.7501 28.5937 40.1667 28.5937 40.6667C28.5937 41.1666 28.125 41.5834 27.5625 41.5834Z" fill="#415A6B"/>
<path d="M22.5 5C22.0313 5 21.5625 5.33336 21.5625 5.83336V8.66672C21.5625 9.08336 21.9375 9.50008 22.5 9.50008C23.0625 9.50008 23.4375 9.16672 23.4375 8.66672V5.83336C23.4375 5.33336 22.9687 5 22.5 5Z" fill="#FFD15C"/>
<path d="M9.93754 10.0834C9.56251 9.75 9.00001 9.75 8.62507 10.0834C8.25012 10.4167 8.25004 10.9167 8.62507 11.25L10.8751 13.25C11.2501 13.5834 11.8126 13.5834 12.1875 13.25C12.5625 12.9166 12.5626 12.4166 12.1875 12.0834L9.93754 10.0834Z" fill="#FFD15C"/>
<path d="M7.03125 21.5834H3.84372C3.375 21.5834 2.90619 21.9167 2.90619 22.4167C2.90619 22.8334 3.28122 23.2501 3.84372 23.2501H7.03125C7.49997 23.2501 7.96878 22.9167 7.96878 22.4167C7.96878 22 7.49997 21.5834 7.03125 21.5834Z" fill="#FFD15C"/>
<path d="M10.875 31.5833L8.62496 33.5833C8.24993 33.9167 8.24993 34.4167 8.62496 34.75C8.99999 35.0833 9.56249 35.0833 9.93743 34.75L12.1874 32.75C12.5625 32.4166 12.5625 31.9166 12.1874 31.5833C11.8124 31.2501 11.25 31.25 10.875 31.5833Z" fill="#FFD15C"/>
<path d="M34.125 31.5833C33.75 31.25 33.1875 31.25 32.8125 31.5833C32.4374 31.9167 32.4374 32.4167 32.8125 32.75L35.0625 34.75C35.4375 35.0833 36 35.0833 36.3749 34.75C36.7499 34.4166 36.75 33.9166 36.3749 33.5833L34.125 31.5833Z" fill="#FFD15C"/>
<path d="M41.1562 21.5834H37.9687C37.5 21.5834 37.0312 21.9167 37.0312 22.4167C37.0312 22.8334 37.4062 23.2501 37.9687 23.2501H41.1562C41.625 23.2501 42.0938 22.9167 42.0938 22.4167C42.0937 22 41.7187 21.5834 41.1562 21.5834Z" fill="#FFD15C"/>
<path d="M35.0625 10.0833L32.8125 12.0833C32.4374 12.4167 32.4374 12.9167 32.8125 13.25C33.1875 13.5833 33.75 13.5833 34.1249 13.25L36.3749 11.25C36.75 10.9166 36.75 10.4166 36.3749 10.0833C35.9999 9.75007 35.4375 9.74999 35.0625 10.0833Z" fill="#FFD15C"/>
<path d="M55.3329 22L55.3529 15.99L53.4029 16.02V15.01H58.4529V16.02L56.4729 15.99L56.5029 22H55.3329ZM61.5745 22.14C61.3212 22.14 61.0612 22.13 60.7945 22.11C60.5345 22.09 60.2912 22.0667 60.0645 22.04C59.8379 22.02 59.6545 22.0033 59.5145 21.99C59.3812 21.97 59.3145 21.96 59.3145 21.96L59.3445 19.29L59.2945 16.14C59.2945 16.14 59.3612 16.1333 59.4945 16.12C59.6345 16.1067 59.8145 16.0933 60.0345 16.08C60.2545 16.06 60.4879 16.0433 60.7345 16.03C60.9812 16.0167 61.2112 16.01 61.4245 16.01C62.1312 16.01 62.6679 16.1367 63.0345 16.39C63.4012 16.6367 63.5845 17.0333 63.5845 17.58C63.5845 17.8533 63.5345 18.08 63.4345 18.26C63.3345 18.44 63.2145 18.58 63.0745 18.68C62.9345 18.78 62.7979 18.8533 62.6645 18.9C62.8445 18.94 63.0179 19.0167 63.1845 19.13C63.3512 19.2367 63.4879 19.3867 63.5945 19.58C63.7079 19.7667 63.7645 20.0033 63.7645 20.29C63.7645 20.7167 63.6679 21.0667 63.4745 21.34C63.2812 21.6067 63.0179 21.8067 62.6845 21.94C62.3512 22.0733 61.9812 22.14 61.5745 22.14ZM61.4945 18.59C61.8679 18.59 62.1179 18.5233 62.2445 18.39C62.3779 18.2567 62.4445 18.0333 62.4445 17.72C62.4445 17.44 62.3679 17.24 62.2145 17.12C62.0612 17 61.7979 16.94 61.4245 16.94C61.2045 16.94 61.0012 16.9467 60.8145 16.96C60.6345 16.9733 60.4845 16.9867 60.3645 17V18.58L61.4945 18.59ZM61.6345 21.21C62.0345 21.21 62.2945 21.14 62.4145 21C62.5412 20.8533 62.6045 20.6167 62.6045 20.29C62.6045 19.9833 62.5112 19.7633 62.3245 19.63C62.1445 19.49 61.8512 19.42 61.4445 19.42H60.3645L60.3845 21.13C60.5112 21.1433 60.6812 21.16 60.8945 21.18C61.1079 21.2 61.3545 21.21 61.6345 21.21ZM67.429 22.13C66.829 22.13 66.3557 22.0067 66.009 21.76C65.669 21.5133 65.4257 21.1633 65.279 20.71C65.1323 20.25 65.059 19.7067 65.059 19.08C65.059 18.4533 65.1323 17.9133 65.279 17.46C65.4257 17 65.669 16.6467 66.009 16.4C66.3557 16.1467 66.829 16.02 67.429 16.02C68.0223 16.02 68.489 16.1467 68.829 16.4C69.1757 16.6467 69.419 17 69.559 17.46C69.7057 17.9133 69.779 18.4533 69.779 19.08C69.779 19.7067 69.7057 20.25 69.559 20.71C69.419 21.1633 69.1757 21.5133 68.829 21.76C68.489 22.0067 68.0223 22.13 67.429 22.13ZM67.429 21.2C67.729 21.2 67.9623 21.1467 68.129 21.04C68.3023 20.9333 68.4223 20.7267 68.489 20.42C68.5623 20.1133 68.599 19.6667 68.599 19.08C68.599 18.4867 68.5623 18.0367 68.489 17.73C68.4223 17.4233 68.3023 17.2167 68.129 17.11C67.9557 17.0033 67.7223 16.95 67.429 16.95C67.1223 16.95 66.8823 17.0033 66.709 17.11C66.5357 17.2167 66.4123 17.4233 66.339 17.73C66.2657 18.0367 66.229 18.4867 66.229 19.08C66.229 19.6667 66.2657 20.1133 66.339 20.42C66.4123 20.7267 66.5357 20.9333 66.709 21.04C66.8823 21.1467 67.1223 21.2 67.429 21.2ZM71.307 22L71.297 16.15H72.407L72.307 20.71H72.347L74.717 16.15H76.207V22H75.097L75.207 17.34H75.167L72.747 22H71.307ZM39.9702 35L40.2102 29.15H41.8302L43.0902 33.01H43.1502L44.4202 29.15H46.0302L46.2802 35H45.1202L45.0902 30.41H44.9902L43.7102 34.16H42.5402L41.2602 30.41H41.1502L41.1402 35H39.9702ZM49.2118 35.13C48.7384 35.13 48.3484 34.9667 48.0418 34.64C47.7351 34.3133 47.5818 33.85 47.5818 33.25C47.5818 32.77 47.6818 32.3933 47.8818 32.12C48.0884 31.8467 48.3751 31.6533 48.7418 31.54C49.1151 31.42 49.5518 31.36 50.0518 31.36H50.9718C50.9718 31.0467 50.9584 30.7967 50.9318 30.61C50.9118 30.4167 50.8718 30.2733 50.8118 30.18C50.7584 30.1067 50.6818 30.0567 50.5818 30.03C50.4884 29.9967 50.3518 29.98 50.1718 29.98C49.9251 29.98 49.6751 30.0033 49.4218 30.05C49.1684 30.09 48.9351 30.14 48.7218 30.2C48.5151 30.26 48.3451 30.3133 48.2118 30.36C48.0851 30.4067 48.0218 30.43 48.0218 30.43L47.7218 29.57C47.7218 29.57 47.7851 29.5433 47.9118 29.49C48.0451 29.4367 48.2218 29.3733 48.4418 29.3C48.6684 29.2267 48.9218 29.1633 49.2018 29.11C49.4884 29.05 49.7851 29.02 50.0918 29.02C50.5918 29.02 50.9884 29.11 51.2818 29.29C51.5818 29.47 51.7951 29.7233 51.9218 30.05C52.0551 30.37 52.1218 30.7467 52.1218 31.18V35H51.3818L51.2318 34.37H51.1718C51.1318 34.3967 51.0518 34.45 50.9318 34.53C50.8118 34.61 50.6618 34.6967 50.4818 34.79C50.3084 34.8833 50.1118 34.9633 49.8918 35.03C49.6718 35.0967 49.4451 35.13 49.2118 35.13ZM49.4918 34.16C49.7051 34.16 49.9151 34.1267 50.1218 34.06C50.3351 33.9933 50.5151 33.9233 50.6618 33.85C50.8151 33.77 50.9184 33.7133 50.9718 33.68V32.3C50.9251 32.2933 50.8184 32.2833 50.6518 32.27C50.4851 32.25 50.2651 32.24 49.9918 32.24C49.4584 32.24 49.1251 32.2967 48.9918 32.41C48.8451 32.5367 48.7718 32.8067 48.7718 33.22C48.7718 33.5533 48.8251 33.7933 48.9318 33.94C49.0451 34.0867 49.2318 34.16 49.4918 34.16ZM53.7795 36.66V29.15H54.5295L54.6795 29.75H54.7295C54.8628 29.65 55.0195 29.5467 55.1995 29.44C55.3795 29.3267 55.5795 29.23 55.7995 29.15C56.0195 29.0633 56.2595 29.02 56.5195 29.02C57.0728 29.02 57.5228 29.2533 57.8695 29.72C58.2162 30.1867 58.3895 30.9367 58.3895 31.97C58.3895 32.6167 58.3228 33.1467 58.1895 33.56C58.0562 33.9733 57.8795 34.2967 57.6595 34.53C57.4395 34.7567 57.1962 34.9133 56.9295 35C56.6628 35.0933 56.3928 35.14 56.1195 35.14C55.8795 35.14 55.6395 35.1233 55.3995 35.09C55.1595 35.0567 55.0028 35.0333 54.9295 35.02V36.66H53.7795ZM56.1895 34.16C56.3028 34.16 56.4062 34.1533 56.4995 34.14C56.5995 34.12 56.6895 34.0767 56.7695 34.01C56.8495 33.95 56.9195 33.8467 56.9795 33.7C57.0462 33.5533 57.0962 33.3367 57.1295 33.05C57.1695 32.7567 57.1895 32.36 57.1895 31.86C57.1895 31.3067 57.1662 30.91 57.1195 30.67C57.0795 30.43 57.0228 30.2667 56.9495 30.18C56.9095 30.1333 56.8495 30.0933 56.7695 30.06C56.6962 30.02 56.5828 30 56.4295 30C56.2295 30 56.0228 30.0333 55.8095 30.1C55.5962 30.1667 55.4095 30.24 55.2495 30.32C55.0895 30.4 54.9828 30.46 54.9295 30.5V33.98C55.0095 34.0067 55.1728 34.0433 55.4195 34.09C55.6662 34.1367 55.9228 34.16 56.1895 34.16ZM61.1454 35.13C60.672 35.13 60.282 34.9667 59.9754 34.64C59.6687 34.3133 59.5154 33.85 59.5154 33.25C59.5154 32.77 59.6154 32.3933 59.8154 32.12C60.022 31.8467 60.3087 31.6533 60.6754 31.54C61.0487 31.42 61.4854 31.36 61.9854 31.36H62.9054C62.9054 31.0467 62.892 30.7967 62.8654 30.61C62.8454 30.4167 62.8054 30.2733 62.7454 30.18C62.692 30.1067 62.6154 30.0567 62.5154 30.03C62.422 29.9967 62.2854 29.98 62.1054 29.98C61.8587 29.98 61.6087 30.0033 61.3554 30.05C61.102 30.09 60.8687 30.14 60.6554 30.2C60.4487 30.26 60.2787 30.3133 60.1454 30.36C60.0187 30.4067 59.9554 30.43 59.9554 30.43L59.6554 29.57C59.6554 29.57 59.7187 29.5433 59.8454 29.49C59.9787 29.4367 60.1554 29.3733 60.3754 29.3C60.602 29.2267 60.8554 29.1633 61.1354 29.11C61.422 29.05 61.7187 29.02 62.0254 29.02C62.5254 29.02 62.922 29.11 63.2154 29.29C63.5154 29.47 63.7287 29.7233 63.8554 30.05C63.9887 30.37 64.0554 30.7467 64.0554 31.18V35H63.3154L63.1654 34.37H63.1054C63.0654 34.3967 62.9854 34.45 62.8654 34.53C62.7454 34.61 62.5954 34.6967 62.4154 34.79C62.242 34.8833 62.0454 34.9633 61.8254 35.03C61.6054 35.0967 61.3787 35.13 61.1454 35.13ZM61.4254 34.16C61.6387 34.16 61.8487 34.1267 62.0554 34.06C62.2687 33.9933 62.4487 33.9233 62.5954 33.85C62.7487 33.77 62.852 33.7133 62.9054 33.68V32.3C62.8587 32.2933 62.752 32.2833 62.5854 32.27C62.4187 32.25 62.1987 32.24 61.9254 32.24C61.392 32.24 61.0587 32.2967 60.9254 32.41C60.7787 32.5367 60.7054 32.8067 60.7054 33.22C60.7054 33.5533 60.7587 33.7933 60.8654 33.94C60.9787 34.0867 61.1654 34.16 61.4254 34.16ZM68.2131 36.81L68.2331 35.11C67.3064 35.0367 66.6364 34.76 66.2231 34.28C65.8164 33.7933 65.6131 33.06 65.6131 32.08C65.6131 31.1 65.8164 30.37 66.2231 29.89C66.6364 29.4033 67.3031 29.1233 68.2231 29.05L68.2131 27.37H69.3031L69.2931 29.04C70.2398 29.1067 70.9231 29.3833 71.3431 29.87C71.7631 30.35 71.9731 31.0867 71.9731 32.08C71.9731 33.0667 71.7631 33.8033 71.3431 34.29C70.9231 34.7767 70.2398 35.0533 69.2931 35.12L69.3031 36.81H68.2131ZM69.2631 31.81L69.2831 34.17C69.6964 34.1433 70.0098 34.0633 70.2231 33.93C70.4431 33.79 70.5931 33.5733 70.6731 33.28C70.7531 32.9867 70.7931 32.59 70.7931 32.09C70.7931 31.5833 70.7531 31.1833 70.6731 30.89C70.5931 30.59 70.4431 30.3733 70.2231 30.24C70.0031 30.1 69.6898 30.0133 69.2831 29.98L69.2631 31.81ZM66.7831 32.09C66.7831 32.5833 66.8198 32.9767 66.8931 33.27C66.9731 33.5567 67.1164 33.77 67.3231 33.91C67.5364 34.05 67.8398 34.1367 68.2331 34.17L68.2531 32.49L68.2331 29.99C67.8398 30.0233 67.5364 30.11 67.3231 30.25C67.1164 30.39 66.9731 30.6067 66.8931 30.9C66.8198 31.1933 66.7831 31.59 66.7831 32.09ZM75.637 35.13C75.037 35.13 74.5637 35.0067 74.217 34.76C73.877 34.5133 73.6337 34.1633 73.487 33.71C73.3403 33.25 73.267 32.7067 73.267 32.08C73.267 31.4533 73.3403 30.9133 73.487 30.46C73.6337 30 73.877 29.6467 74.217 29.4C74.5637 29.1467 75.037 29.02 75.637 29.02C76.2303 29.02 76.697 29.1467 77.037 29.4C77.3837 29.6467 77.627 30 77.767 30.46C77.9137 30.9133 77.987 31.4533 77.987 32.08C77.987 32.7067 77.9137 33.25 77.767 33.71C77.627 34.1633 77.3837 34.5133 77.037 34.76C76.697 35.0067 76.2303 35.13 75.637 35.13ZM75.637 34.2C75.937 34.2 76.1703 34.1467 76.337 34.04C76.5103 33.9333 76.6303 33.7267 76.697 33.42C76.7703 33.1133 76.807 32.6667 76.807 32.08C76.807 31.4867 76.7703 31.0367 76.697 30.73C76.6303 30.4233 76.5103 30.2167 76.337 30.11C76.1637 30.0033 75.9303 29.95 75.637 29.95C75.3303 29.95 75.0903 30.0033 74.917 30.11C74.7437 30.2167 74.6203 30.4233 74.547 30.73C74.4737 31.0367 74.437 31.4867 74.437 32.08C74.437 32.6667 74.4737 33.1133 74.547 33.42C74.6203 33.7267 74.7437 33.9333 74.917 34.04C75.0903 34.1467 75.3303 34.2 75.637 34.2ZM79.465 35V29.15H80.615L80.595 31.54H83.085L83.065 29.15H84.225V35H83.065L83.085 32.52H80.595L80.615 35H79.465ZM91.8084 35.01L91.8584 32.22L91.8084 29.15H92.9684L92.9184 31.76L92.9684 35L91.8084 35.01ZM88.3384 35.13C88.0851 35.13 87.8151 35.1167 87.5284 35.09C87.2417 35.0633 86.9651 35.03 86.6984 34.99C86.4384 34.95 86.2117 34.9033 86.0184 34.85L86.0284 32.24L86.0184 29.15H87.1784V30.99C87.2784 30.9833 87.4517 30.9667 87.6984 30.94C87.9517 30.9067 88.1951 30.89 88.4284 30.89C89.1284 30.8833 89.6784 31.05 90.0784 31.39C90.4851 31.7233 90.6884 32.2767 90.6884 33.05C90.6884 33.7367 90.4751 34.2567 90.0484 34.61C89.6217 34.9567 89.0517 35.13 88.3384 35.13ZM88.3184 34.12C88.7851 34.12 89.0851 34.0733 89.2184 33.98C89.2984 33.92 89.3684 33.82 89.4284 33.68C89.4884 33.54 89.5184 33.3433 89.5184 33.09C89.5184 32.89 89.5017 32.6933 89.4684 32.5C89.4351 32.3067 89.3684 32.16 89.2684 32.06C89.1484 31.94 88.8517 31.88 88.3784 31.88C88.1051 31.88 87.8551 31.8967 87.6284 31.93C87.4017 31.9633 87.2517 31.9867 87.1784 32V34.02C87.2451 34.0333 87.3884 34.0533 87.6084 34.08C87.8351 34.1067 88.0717 34.12 88.3184 34.12Z" fill="white"/>
</svg>
